<svg width="25" height="25" viewBox="0 0 25 25" fill="none" xmlns="http://www.w3.org/2000/svg">
<g clip-path="url(#clip0_1_7510)">
<path d="M13.8608 1.32918C13.8608 0.56018 13.2359 -0.0704299 12.4707 0.00634324C11.119 0.141963 9.79195 0.474918 8.5323 0.996683C6.84296 1.69643 5.30799 2.72207 4.01503 4.01503C2.72206 5.30799 1.69643 6.84296 0.996683 8.5323C0.474918 9.79195 0.141963 11.119 0.00634323 12.4707C-0.0704298 13.2359 0.56018 13.8608 1.32918 13.8608H12.4684C13.2374 13.8608 13.8608 13.2374 13.8608 12.4684L13.8608 1.32918Z" fill="url(#paint0_linear_1_7510)"/>
<g filter="url(#filter0_bi_1_7510)">
<circle cx="13.8608" cy="13.8608" r="11.1392" fill="#1D1D1D" fill-opacity="0.05"/>
<circle cx="13.8608" cy="13.8608" r="11.1392" fill="url(#paint1_linear_1_7510)" fill-opacity="0.2"/>
<circle cx="13.8608" cy="13.8608" r="11.0392" stroke="url(#paint2_linear_1_7510)" stroke-opacity="0.1" stroke-width="0.2"/>
</g>
</g>
<defs>
<filter id="filter0_bi_1_7510" x="-0.278442" y="-0.278442" width="28.2784" height="28.2784" filterUnits="userSpaceOnUse" color-interpolation-filters="sRGB">
<feFlood flood-opacity="0" result="BackgroundImageFix"/>
<feGaussianBlur in="BackgroundImageFix" stdDeviation="1.5"/>
<feComposite in2="SourceAlpha" operator="in" result="effect1_backgroundBlur_1_7510"/>
<feBlend mode="normal" in="SourceGraphic" in2="effect1_backgroundBlur_1_7510" result="shape"/>
<feColorMatrix in="SourceAlpha" type="matrix" values="0 0 0 0 0 0 0 0 0 0 0 0 0 0 0 0 0 0 127 0" result="hardAlpha"/>
<feOffset dy="0.5"/>
<feGaussianBlur stdDeviation="1"/>
<feComposite in2="hardAlpha" operator="arithmetic" k2="-1" k3="1"/>
<feColorMatrix type="matrix" values="0 0 0 0 1 0 0 0 0 1 0 0 0 0 1 0 0 0 0.15 0"/>
<feBlend mode="normal" in2="shape" result="effect2_innerShadow_1_7510"/>
</filter>
<linearGradient id="paint0_linear_1_7510" x1="0.577533" y1="2.77216" x2="15.6869" y2="4.87069" gradientUnits="userSpaceOnUse">
<stop stop-color="#AE49B0"/>
<stop offset="1" stop-color="#5568FE"/>
</linearGradient>
<linearGradient id="paint1_linear_1_7510" x1="3.64982" y1="7.17724" x2="27.9352" y2="10.5502" gradientUnits="userSpaceOnUse">
<stop stop-color="#FE82DB"/>
<stop offset="1" stop-color="#68E4FF"/>
</linearGradient>
<linearGradient id="paint2_linear_1_7510" x1="3.41776" y1="3.73421" x2="25" y2="3.73421" gradientUnits="userSpaceOnUse">
<stop stop-color="#FD84DC"/>
<stop offset="1" stop-color="#7FD6FA"/>
</linearGradient>
<clipPath id="clip0_1_7510">
<rect width="25" height="25" fill="white"/>
</clipPath>
</defs>
</svg>
