<svg width="215" height="66" viewBox="0 0 215 66" fill="none" xmlns="http://www.w3.org/2000/svg">
<mask id="mask0_1_81" style="mask-type:alpha" maskUnits="userSpaceOnUse" x="0" y="0" width="215" height="66">
<rect width="215" height="66" fill="#D9D9D9"/>
</mask>
<g mask="url(#mask0_1_81)">
<path d="M166.46 21.1904L171.802 33.3254L171.835 21.1904H174.176V32.3361H179.057V33.9519H169.692L168.076 30.5555H165.405V29.0386H167.581L165.405 24.2901V21.2234H166.46V21.1904ZM165.405 30.5225H162.668L161.085 33.919H156.699V21.2894H159.206V33.5562L164.778 21.1904H165.405V24.2572L165.306 23.9933L163.262 29.0056H165.405V30.5225ZM104.994 33.9849V33.0946L105.522 33.9519L104.994 33.9849ZM104.994 31.8415C106.016 33.6881 108.291 34.2487 110.105 34.2817C112.38 34.3147 114.392 33.1605 115.051 32.2702C116.173 30.6544 115.81 25.3453 115.81 22.6743C119.569 22.4105 123.361 23.0041 122.9 27.9174C122.438 32.4021 119.371 32.9297 115.282 32.7648C115.018 33.2594 114.557 33.6552 113.897 33.9519C123.757 34.7104 124.35 31.6766 125.406 29.2694V33.9519L135.661 34.0179V24.7848L143.509 33.9519H145.422V22.6743H149.742V33.9519H152.281V22.7073H156.93V21.3223H143.509V30.4565L135.661 21.3223H133.88V32.5999H127.516V28.1153H132.891V26.7633H127.516L127.549 22.6414H133.155V21.2894H125.208V25.5432C124.878 24.8177 124.482 24.0593 124.021 23.4328C121.976 20.8937 118.085 21.3883 113.568 21.3883V27.7196C113.568 29.863 113.37 32.7978 110.138 32.8308C107.335 32.8637 106.775 31.182 106.676 28.3791C106.709 26.4995 106.61 23.4328 106.61 21.3883H104.994V31.8415ZM104.994 21.4213V31.8415C104.598 31.182 104.433 30.3906 104.433 29.4013V21.3883H104.994V21.4213ZM104.994 33.0946L101.993 28.4121C103.609 27.5217 104.433 26.0708 103.906 23.9604C103.378 22.0148 102.092 21.5532 99.6519 21.5202H99.454V22.6414H100.41C101.861 23.2019 102.059 26.3676 100.806 27.126C100.509 27.3568 100.015 27.4228 99.454 27.4558V28.9397H99.7178L102.916 34.0509L104.994 33.9519V33.0946ZM99.487 21.5202V22.6414H97.3436V27.4228C97.8382 27.4228 98.7286 27.4887 99.487 27.4558V28.9397H97.3436V34.0509H94.8045L94.8375 21.4872H99.487V21.5202ZM89.9241 29.2365C90.4847 29.2365 91.0783 29.2035 91.5729 29.1045C91.7707 29.0716 92.6941 28.6759 92.793 28.6099C94.9034 27.2909 94.9034 23.3338 92.793 22.0148C92.1664 21.6521 91.1112 21.4872 89.9241 21.4542V22.7733H90.6825C92.3973 23.0371 92.5621 25.6751 91.8037 27.0271C91.474 27.6206 90.6826 27.8515 89.9241 27.9174V29.2365ZM89.9241 21.4542V22.7733H87.5829V27.8845C88.1434 27.9174 89.0668 27.9834 89.9241 27.9174V29.2365C89.4625 29.2365 89.0008 29.2364 88.5721 29.2035H87.5829V34.1168H85.4395V21.5532C86.6925 21.5202 88.4072 21.4213 89.9241 21.4542Z" fill="#A4A4A4"/>
<path d="M186.641 25.5103C186.641 25.5103 186.707 25.6422 187.07 25.906C187.433 26.1698 187.564 26.2027 187.564 26.2027C187.564 26.2027 187.466 26.5984 187.466 27.225C187.466 27.8845 187.729 29.1046 187.729 29.0716C187.729 29.0386 187.334 28.577 186.971 27.5218C186.575 26.3346 186.641 25.5103 186.641 25.5103Z" fill="#A4A4A4"/>
<path d="M184.465 28.6758C184.465 28.6758 184.63 28.445 184.696 28.1482C184.762 27.8514 184.762 27.6206 184.762 27.6206C184.762 27.6206 185.058 27.5876 185.454 27.2579C185.85 26.9281 186.114 26.6313 186.114 26.6313C186.114 26.6313 186.015 27.3568 185.553 27.9174C184.926 28.7418 184.465 28.6758 184.465 28.6758Z" fill="#A4A4A4"/>
<path d="M186.179 28.0164C186.509 28.0164 186.509 30.2257 186.509 30.1927C186.509 30.1598 187.861 30.9182 187.861 31.6107C187.861 32.534 186.179 33.1605 186.179 33.1605C186.179 33.1605 186.081 33.919 185.916 34.6444C185.751 35.3699 185.586 36.3262 185.586 36.3262C185.586 36.3262 185.487 35.6007 185.487 34.8752V33.7541C185.487 33.7541 184.597 34.0509 184.597 34.7104C184.597 35.3699 184.827 35.172 184.827 35.5348C184.827 35.8975 184.597 36.3262 184.597 36.3262C184.597 36.3262 184.696 35.6667 184.102 35.3039C183.508 34.9412 183.673 34.2817 184.135 34.0179C184.597 33.7541 185.454 33.4243 185.454 33.4243C185.454 33.4243 185.487 32.7978 185.487 31.9734C185.487 31.149 185.52 30.7533 185.52 30.7533C185.52 30.7533 183.937 30.5225 183.904 29.9619C183.904 29.83 184.333 29.7641 184.827 29.7641C185.19 29.7641 185.619 29.863 185.619 29.863C185.619 29.863 185.982 28.0164 186.179 28.0164ZM186.476 30.9182C186.476 30.9182 186.41 31.5777 186.344 32.0723C186.278 32.567 186.212 32.8308 186.212 32.8308C186.212 32.8308 187.169 32.534 187.202 31.7756C187.268 31.0831 186.476 30.9182 186.476 30.9182Z" fill="#A4A4A4"/>
<path d="M190.796 24.0594V25.2465C190.796 25.2465 190.895 24.9497 192.313 24.488C193.731 23.9934 194.621 23.9604 194.621 23.9604L190.796 24.0594Z" fill="#A4A4A4"/>
<path d="M191.785 25.9718V25.2464C191.785 25.2464 192.379 25.1475 192.939 25.1475C193.929 25.1475 194.555 25.3453 194.555 25.3453C194.555 25.3453 194.258 25.3123 193.995 25.3123C193.731 25.3123 193.665 25.3783 193.665 25.3783C193.665 25.3783 193.83 25.8399 193.5 25.9718C193.17 26.1037 193.137 26.0708 193.005 26.1038C192.874 26.1367 192.676 26.1367 192.676 26.1367L192.874 25.9389C192.874 25.9389 192.939 25.9059 192.808 25.774C192.676 25.6421 192.742 25.4442 192.742 25.4442C192.742 25.4442 192.61 25.5432 192.28 25.6751C192.016 25.8399 191.785 25.9718 191.785 25.9718Z" fill="#A4A4A4"/>
<path d="M193.335 30.6543H194.291C194.291 30.6543 194.786 30.0938 194.951 30.0938C195.182 30.0938 195.281 30.4895 195.545 30.4895C195.61 30.4895 195.808 30.1927 195.973 30.1927C196.237 30.1927 196.237 30.6543 196.336 30.6543H196.6V30.7203H195.775C195.775 30.7203 195.709 30.8852 195.545 30.8852C195.38 30.8852 195.182 30.6873 195.182 30.6873H193.335V30.6543Z" fill="#A4A4A4"/>
<path d="M196.171 31.0171C196.171 31.0171 195.907 31.3798 195.215 31.3798C194.621 31.3798 194.357 31.116 194.193 31.0171C194.16 30.9841 194.094 30.9841 194.028 30.9841C193.962 30.9841 193.995 31.0501 194.061 31.0501C194.127 31.0501 194.127 31.0831 194.16 31.0831C194.193 31.149 194.225 31.215 194.324 31.3469C194.555 31.6436 195.017 31.8415 195.215 31.8415C195.413 31.8415 195.643 31.7755 196.006 31.4458C196.27 31.182 196.171 31.0171 196.171 31.0171Z" fill="#A4A4A4"/>
<path d="M189.84 31.8744C189.84 31.8744 193.137 33.4242 194.72 33.4242C195.643 33.4242 195.709 33.2593 196.006 32.8966C196.303 32.5339 198.084 30.0937 198.413 28.412C198.776 26.7302 198.875 26.2686 198.875 26.2686C198.875 26.2686 199.007 28.0492 198.38 29.7639C197.787 31.5116 196.369 33.3253 196.072 33.6221C195.775 33.9189 195.314 33.9848 194.39 33.8859C193.467 33.7869 191.785 33.1934 191.027 32.6328C190.235 32.0722 189.84 31.8744 189.84 31.8744Z" fill="#A4A4A4"/>
<path d="M198.281 37.5132V36.458C198.281 36.0293 198.545 35.6006 198.941 35.3039C199.337 35.0071 199.666 34.9741 199.666 34.0508C199.666 33.1605 199.633 33.2594 199.633 32.8637C199.633 32.468 199.93 32.0723 200.326 32.0723C200.722 32.0723 201.15 32.5999 201.15 32.5999C201.15 32.5999 200.359 32.5999 200.227 33.5891C200.095 34.5784 200.095 34.8752 199.732 35.5017C199.37 36.0953 199.04 36.3591 198.776 36.7218C198.479 37.0845 198.281 37.5132 198.281 37.5132Z" fill="#A4A4A4"/>
<path d="M200.92 33.9521L201.48 34.3148C201.48 34.3148 201.513 34.051 201.81 33.7212C202.107 33.3915 202.239 33.2926 202.239 33.2926C202.239 33.2926 202.041 33.1936 201.513 33.4245C201.018 33.6883 200.92 33.9521 200.92 33.9521Z" fill="#A4A4A4"/>
<path d="M200.194 35.7986L200.919 36.2933C200.919 36.2933 201.051 35.8316 201.513 35.304C201.942 34.8094 202.206 34.7105 202.206 34.7105C202.206 34.7105 201.678 34.6115 201.051 35.0072C200.392 35.4359 200.194 35.7986 200.194 35.7986Z" fill="#A4A4A4"/>
<path d="M204.778 25.0816C204.778 25.0816 204.811 23.4658 204.085 23.4658C203.558 23.4658 202.7 24.2242 201.546 27.9505C200.854 30.2258 201.579 31.5448 201.579 31.5448C201.579 31.5448 201.777 29.0387 202.173 28.1813C202.535 27.3239 203.558 24.7519 204.316 24.7519C204.646 24.7519 204.778 25.0816 204.778 25.0816Z" fill="#A4A4A4"/>
<path d="M198.512 24.5209C198.512 24.5209 196.6 24.323 196.468 26.2026C196.435 26.6973 196.534 26.6643 196.534 27.5216C196.534 28.379 196.534 28.412 196.534 28.6098C196.534 28.8077 196.633 29.1045 196.072 29.1045H194.127C193.929 29.1045 193.83 29.2034 194.028 29.2693C194.258 29.3353 194.357 29.3683 194.522 29.4342C194.687 29.5331 194.819 29.5661 194.984 29.4672C195.116 29.4012 195.149 29.3353 195.446 29.3353C195.742 29.3353 195.709 29.3353 195.808 29.4342C195.907 29.5331 195.94 29.5331 196.105 29.5331C196.27 29.5331 196.369 29.4672 196.567 29.2364C196.765 29.0385 196.896 28.4779 196.929 27.5216C196.995 26.5654 197.028 25.741 197.391 25.2134C197.82 24.7517 198.512 24.5209 198.512 24.5209Z" fill="#A4A4A4"/>
<path d="M198.446 25.6091C198.446 25.3453 198.249 25.1475 197.985 25.1475C197.721 25.1475 197.523 25.3453 197.523 25.6091C197.523 25.741 197.589 25.8729 197.721 25.9718C197.721 26.0048 197.688 26.0048 197.688 26.0378C197.589 26.1367 197.424 26.2027 197.424 26.2027C197.424 26.2027 197.556 26.2686 197.754 26.1697C197.853 26.1367 197.952 26.1038 198.018 26.0708C198.051 26.0708 198.084 26.0708 198.117 26.0378C198.314 26.0048 198.446 25.84 198.446 25.6091Z" fill="#A4A4A4"/>
<path d="M198.578 23.3998V22.2457L197.589 22.0479C197.589 22.0479 198.117 22.2457 198.347 22.6744C198.578 23.0041 198.578 23.3998 198.578 23.3998Z" fill="#A4A4A4"/>
<path d="M199.106 21.5532C199.106 21.7511 199.04 21.85 198.842 22.1138C198.644 22.3776 198.578 22.7403 198.281 22.5425C197.985 22.3446 197.094 21.7511 193.104 21.7511C190.499 21.7511 188.982 22.2457 188.455 22.2457C187.927 22.2457 187.235 21.9159 187.235 21.0916C187.235 20.2672 187.466 20.1023 187.531 20.1023C187.564 20.1023 187.927 21.3883 189.345 21.3883C190.763 21.3883 192.742 20.432 195.38 20.432C197.49 20.465 199.106 21.4543 199.106 21.5532Z" fill="#A4A4A4"/>
<path d="M194.061 20.1681C194.061 20.1681 193.83 18.3215 192.939 18.3215C192.643 18.3215 192.445 18.4864 192.214 18.4864C191.587 18.4864 191.027 17.2663 190.137 17.2663C189.741 17.2663 189.477 17.3982 189.246 17.3982C188.883 17.3982 188.62 16.9695 188.62 16.9695C188.62 16.9695 188.62 18.2555 190.137 18.2555C190.499 18.2555 190.895 18.2225 191.291 18.4534C192.873 19.4097 194.061 20.1681 194.061 20.1681Z" fill="#A4A4A4"/>
<path d="M193.401 16.7717C193.401 16.7717 193.071 17.2993 194.225 18.0248C195.38 18.7503 195.479 18.4865 195.775 19.08C196.072 19.6406 196.072 19.7395 196.072 19.7395C196.072 19.7395 196.336 19.4098 196.336 18.9151C196.336 18.3875 196.039 18.0578 195.281 17.8269C194.522 17.5961 194.423 17.5961 194.127 17.3983C193.995 17.2993 193.896 17.1674 193.764 17.0355C193.599 16.8707 193.401 16.7717 193.401 16.7717Z" fill="#A4A4A4"/>
<path d="M197.226 18.3875C197.226 18.3875 197.391 18.8161 197.556 19.1459C197.721 19.4756 197.952 20.1352 198.347 20.1352C198.71 20.1352 198.776 19.4756 198.347 19.2778C197.919 19.047 197.82 18.981 197.622 18.8161C197.391 18.6183 197.226 18.3875 197.226 18.3875Z" fill="#A4A4A4"/>
<path d="M187.696 22.9382C187.696 22.9382 185.817 21.0586 184.432 21.0586C182.849 21.0586 182.717 21.9819 180.903 21.9819H180.87C179.189 21.9819 179.123 20.9927 179.123 20.9927C179.123 20.9927 178.694 21.4543 178.529 21.949C178.331 22.5095 178.43 23.1361 179.255 23.1361C180.145 23.1361 181.464 22.0149 183.443 22.0149H184.267C184.267 22.0149 184.63 22.4766 185.256 22.6744C185.883 22.8723 186.311 22.9052 186.41 22.9052C186.509 22.9052 186.509 23.169 186.377 23.169C186.245 23.169 185.718 23.235 185.289 23.235C184.86 23.235 184.069 23.0701 183.245 23.0701C182.42 23.0701 181.662 23.1031 181.134 23.3999C180.607 23.6967 180.574 23.8945 180.541 24.2243C180.508 24.554 180.64 25.2135 180.64 25.2135C180.64 25.2135 181.2 24.2902 182.354 24.2902C183.179 24.2902 183.607 24.554 184.201 24.554C186.476 24.554 187.696 22.9382 187.696 22.9382Z" fill="#A4A4A4"/>
<mask id="mask1_1_81" style="mask-type:luminance" maskUnits="userSpaceOnUse" x="14" y="38" width="191" height="13">
<path d="M204.778 38.7334H14.707V50.7365H204.778V38.7334Z" fill="white"/>
</mask>
<g mask="url(#mask1_1_81)">
<path d="M204.778 38.7334H14.707V50.7365H204.778V38.7334Z" fill="url(#paint0_linear_1_81)"/>
</g>
<path d="M24.8633 33.9519L28.4906 20.7947H33.0742L29.4798 33.9519H24.8633Z" fill="#6B6F70"/>
<path d="M48.54 33.9519L52.1673 20.7947H56.7509L53.1566 33.9519H48.54Z" fill="#6B6F70"/>
<path d="M72.2158 33.9519L75.8431 20.7947H80.4267L76.8324 33.9519H72.2158Z" fill="#6B6F70"/>
<path fill-rule="evenodd" clip-rule="evenodd" d="M44.2531 25.3123H48.8696C49.4962 22.3445 47.5177 20.8276 43 20.8276C37.7569 20.8276 34.2285 23.3338 33.0085 27.6536C31.9203 31.5776 34.0637 33.9848 38.977 33.9848C43.9563 33.9848 46.8911 32.468 48.1442 29.1045H43.5276C42.8681 30.5884 41.681 31.3798 40.0322 31.3798C37.7899 31.3798 36.9325 29.9948 37.625 27.4887C38.3505 24.8836 40.0322 23.4657 42.2746 23.4657C43.6925 23.4327 44.352 24.0592 44.2531 25.3123Z" fill="#6B6F70"/>
<path fill-rule="evenodd" clip-rule="evenodd" d="M67.9295 25.3123H72.546C73.1726 22.3445 71.194 20.8276 66.6764 20.8276C61.4333 20.8276 57.9049 23.3338 56.6848 27.6536C55.5966 31.5776 57.74 33.9848 62.6534 33.9848C67.6327 33.9848 70.5675 32.468 71.8206 29.1045H67.204C66.5445 30.5884 65.3574 31.3798 63.7086 31.3798C61.4663 31.3798 60.6089 29.9948 61.3014 27.4887C62.0269 24.8836 63.7086 23.4657 65.9509 23.4657C67.3689 23.4327 68.0284 24.0592 67.9295 25.3123Z" fill="#6B6F70"/>
<path fill-rule="evenodd" clip-rule="evenodd" d="M12.2009 18.2886C16.8175 13.8039 22.4233 12.6498 24.6657 15.7165C26.908 18.7832 24.9295 24.9166 20.3129 29.3683C15.6963 33.853 10.0905 35.0071 7.84817 31.9404C5.60584 28.9066 7.55139 22.7732 12.2009 18.2886Z" fill="#A4A4A4"/>
<path fill-rule="evenodd" clip-rule="evenodd" d="M15.2347 15.9144C14.74 16.2772 14.2124 16.7059 13.7178 17.2005C9.66182 21.0916 7.98007 26.4336 9.99157 29.1046C12.036 31.7756 17.0483 30.8193 21.1702 26.8623C23.3796 24.7519 24.8965 22.3117 25.49 20.0364C25.6879 18.3546 25.4241 16.8707 24.6327 15.7496C22.852 13.3423 19.0598 13.5402 15.2347 15.9144Z" fill="#6B6F70"/>
<path fill-rule="evenodd" clip-rule="evenodd" d="M17.543 31.5776C15.3666 33.1604 13.1242 33.9519 10.9479 33.6221C11.8712 33.6551 12.5966 32.6658 13.2232 31.3468C13.8497 29.9948 14.2124 28.7088 14.5092 27.5216C14.9379 25.642 14.9709 24.323 14.74 24.0262C14.3773 23.5646 13.5199 23.6635 12.5637 24.1911C12.102 24.4219 11.5084 24.2571 12.2339 23.4327C12.9594 22.5753 15.8282 20.5308 16.8834 20.2011C18.0376 19.8713 19.3236 20.3 18.8949 21.5201C18.5652 22.4434 14.5752 32.6328 17.543 31.5776ZM20.8075 15.7824C21.3351 16.31 21.0054 17.4641 20.115 18.3545C19.1917 19.2448 17.9716 19.5745 17.444 19.0469C16.8834 18.5193 17.2132 17.3652 18.1365 16.4419C19.0598 15.5515 20.2799 15.2548 20.8075 15.7824Z" fill="white"/>
<path d="M23.3137 42.0969H24.5997V45.6253H26.2155V46.6805H23.3137V42.0969Z" fill="white"/>
<path d="M34.2615 42.0969H32.9755V46.6805H34.2615V42.0969Z" fill="white"/>
<path d="M41.5491 42.0969H44.418V43.0862H42.8022V43.9106H44.319V44.8669H42.8022V46.6805H41.5491V42.0969Z" fill="white"/>
<path d="M51.3758 42.0969H54.2776V43.0862H52.6288V43.9106H54.1787V44.8669H52.6288V45.6583H54.2776V46.6805H51.3758V42.0969Z" fill="white"/>
<path d="M71.194 42.0969H69.908V46.6805H71.194V42.0969Z" fill="white"/>
<path d="M78.2838 42.0969H79.5368L81.3175 44.4712C81.3505 44.5371 81.5154 44.8009 81.7462 45.2955C81.7132 44.9328 81.6802 44.636 81.6802 44.4052V42.1299H82.9003V46.7135H81.6802L79.8996 44.3393C79.8666 44.2733 79.7017 44.0095 79.4709 43.5478C79.5039 43.9106 79.5368 44.2073 79.5368 44.4382V46.7135H78.2838V42.0969Z" fill="white"/>
<path d="M91.309 45.823C91.6718 45.823 91.9026 45.6251 91.9026 45.3613C91.9026 44.9986 91.6388 44.8996 91.1112 44.7677C90.2538 44.5369 89.8581 44.2072 89.8581 43.4817C89.8581 42.6243 90.4847 41.9978 91.4739 41.9978C92.0015 41.9978 92.4632 42.1297 92.8589 42.3935L92.4632 43.2838C92.1664 43.053 91.8367 42.9211 91.5729 42.9211C91.2431 42.9211 91.0452 43.086 91.0452 43.3168C91.0452 43.6466 91.375 43.7125 91.8037 43.8115C92.6281 44.0423 93.0897 44.3391 93.0897 45.1634C93.0897 46.1197 92.3972 46.7792 91.2761 46.7792C90.6166 46.7792 90.1219 46.5814 89.5943 46.1197L90.1879 45.1964C90.5506 45.6251 90.9133 45.823 91.309 45.823Z" fill="white"/>
<path d="M101.103 42.0969V44.6031C101.103 45.4274 101.268 45.7572 101.927 45.7572C102.719 45.7572 102.752 45.2955 102.752 44.3063V42.0969H104.038V44.8339C104.038 46.2189 103.444 46.8124 101.927 46.8124C101.136 46.8124 100.575 46.6475 100.245 46.2518C99.8827 45.8231 99.8497 45.2955 99.8497 44.5701V42.0969H101.103Z" fill="white"/>
<path d="M111.061 42.0969H112.479C113.139 42.0969 113.633 42.0969 114.029 42.3937C114.359 42.6575 114.557 43.0532 114.557 43.5149C114.557 44.2403 114.194 44.669 113.502 44.8339L114.788 46.6805H113.337L112.248 44.8669V46.6805H111.028V42.0969H111.061ZM112.512 44.2733C113.04 44.2733 113.304 44.1084 113.304 43.7127C113.304 43.2181 113.073 43.0862 112.512 43.0862H112.248V44.3063H112.512V44.2733Z" fill="white"/>
<path d="M122.702 42.0969H124.318L125.933 46.6805H124.647L124.416 45.8561H122.603L122.372 46.6805H121.086L122.702 42.0969ZM124.153 44.9658L123.658 43.4489C123.625 43.383 123.592 43.1851 123.493 42.8224C123.394 43.1521 123.361 43.383 123.328 43.4489L122.867 44.9658H124.153Z" fill="white"/>
<path d="M132.462 42.0969H133.715L135.496 44.4712C135.529 44.5371 135.694 44.8009 135.925 45.2955C135.892 44.9328 135.859 44.636 135.859 44.4052V42.1299H137.079V46.7135H135.859L134.078 44.3393C134.045 44.2733 133.88 44.0095 133.65 43.5478C133.683 43.9106 133.715 44.2073 133.715 44.4382V46.7135H132.462V42.0969Z" fill="white"/>
<path d="M147.532 43.6466C147.202 43.2839 146.873 43.086 146.444 43.086C145.686 43.086 145.191 43.6466 145.191 44.405C145.191 45.0975 145.686 45.6911 146.444 45.6911C146.873 45.6911 147.202 45.5262 147.532 45.1305V46.4825C147.136 46.6803 146.741 46.7793 146.312 46.7793C144.927 46.7793 143.905 45.757 143.905 44.3721C143.905 42.9871 144.894 41.9648 146.312 41.9648C146.741 41.9648 147.136 42.0638 147.532 42.2616V43.6466Z" fill="white"/>
<path d="M154.457 42.0969H157.359V43.0862H155.71V43.9106H157.26V44.8669H155.71V45.6583H157.359V46.6805H154.457V42.0969Z" fill="white"/>
</g>
<defs>
<linearGradient id="paint0_linear_1_81" x1="14.7146" y1="44.7275" x2="204.769" y2="44.7275" gradientUnits="userSpaceOnUse">
<stop stop-color="#6B6F70"/>
<stop offset="0.2269" stop-color="#6B6F70"/>
<stop offset="0.3214" stop-color="#A4A4A4"/>
<stop offset="1" stop-color="#A4A4A4"/>
</linearGradient>
</defs>
</svg>
