<svg width="107" height="66" viewBox="0 0 107 66" fill="none" xmlns="http://www.w3.org/2000/svg">
<mask id="mask0_1_72" style="mask-type:alpha" maskUnits="userSpaceOnUse" x="0" y="0" width="107" height="66">
<rect opacity="0.7" width="107" height="66" fill="#D9D9D9"/>
</mask>
<g mask="url(#mask0_1_72)">
<path fill-rule="evenodd" clip-rule="evenodd" d="M75.6063 28.5424C75.5948 27.3474 75.5342 26.2234 75.4235 25.1709C75.3122 24.2282 75.1295 23.3397 74.875 22.5062C74.6201 21.6729 74.3266 20.9437 73.9943 20.3187C73.6619 19.6937 73.2909 19.2002 72.8809 18.8382C72.4704 18.4769 72.0551 18.2957 71.6343 18.2957C71.3238 18.3174 70.9862 18.3562 70.6204 18.4107C70.2551 18.4657 69.9228 18.5644 69.6236 18.7069C69.3246 18.8494 69.0859 19.0469 68.9088 19.2989C68.731 19.5514 68.6762 19.8749 68.7425 20.2694C68.7646 20.7299 68.8757 21.1794 69.0751 21.6182C69.2948 22.1015 69.5164 22.584 69.7399 23.0657C69.9833 23.5919 70.2217 24.1894 70.4543 24.8582C70.6872 25.5274 70.8583 26.3222 70.9693 27.2432C71.1025 28.6907 71.1025 30.0942 70.9693 31.4537C70.8367 32.8137 70.6041 34.0252 70.2717 35.0884C69.9391 36.1524 69.5238 37.0024 69.0254 37.6377C68.5265 38.2744 67.9783 38.5917 67.3799 38.5917C67.0026 38.5917 66.6376 38.4274 66.2831 38.0984C65.9281 37.7697 65.7065 37.4189 65.6184 37.0459C65.4631 36.0589 65.4686 35.1269 65.6352 34.2497C65.801 33.3729 66.0723 32.5944 66.4494 31.9142C66.8257 31.2347 67.291 30.6697 67.8452 30.2202C68.3988 29.7709 68.9862 29.4584 69.6067 29.2827C69.9833 29.1512 70.1275 28.8547 70.0391 28.3944C69.9941 28.1097 69.8507 27.8957 69.6067 27.7529C69.363 27.6104 69.0638 27.5392 68.7094 27.5392C67.6675 27.5392 66.6597 27.7529 65.6849 28.1804C64.7097 28.6079 63.8618 29.2497 63.1421 30.1052C62.4221 30.9602 61.9011 32.0352 61.58 33.3287C61.3614 34.2082 61.2823 35.1912 61.3348 36.2727C60.8289 36.8484 60.35 37.3402 59.9016 37.7364C59.3808 38.1969 58.8766 38.4274 58.3893 38.4274C57.9243 38.4274 57.6801 38.2414 57.6582 37.8684C57.7502 37.1921 57.8833 36.5219 58.0569 35.8617C58.633 33.5374 59.0485 31.7937 59.3035 30.6312C59.5577 29.4692 59.6966 28.7454 59.719 28.4602C59.6303 28.1972 59.4637 27.9562 59.2203 27.7364C58.9702 27.5133 58.6906 27.3252 58.3893 27.1774C58.0711 27.0213 57.7369 26.8999 57.3924 26.8154C57.0375 26.7279 56.7161 26.6839 56.4285 26.6839C56.2506 26.6839 56.0627 26.7282 55.8633 26.8154C55.664 26.9034 55.5417 27.0129 55.498 27.1444L55.1985 28.0324C55.0077 27.9626 54.8135 27.9023 54.6167 27.8517C54.394 27.7955 54.1651 27.7679 53.9354 27.7694C52.9386 27.7694 51.9023 28.0932 50.8278 28.7397C49.7526 29.3872 48.7836 30.2149 47.9197 31.2234C47.0555 32.2324 46.3792 33.3452 45.8924 34.5624C45.6185 35.2462 45.4532 35.9174 45.3889 36.5774C45.2749 36.7084 45.1578 36.8412 45.0312 36.9799C44.7226 37.3175 44.3833 37.6258 44.0175 37.9009C43.6633 38.1424 43.3304 38.2907 43.0202 38.3449C42.7099 38.4004 42.4331 38.4274 42.1899 38.4274C41.8573 38.4274 41.5581 38.3177 41.2918 38.0984C41.0262 37.8797 40.7768 37.5884 40.5439 37.2267C40.2992 36.8425 40.0826 36.4413 39.8957 36.0262C39.6941 35.5822 39.5058 35.1325 39.331 34.6774C41.0812 34.1074 42.3939 33.4164 43.2694 32.6049C44.1444 31.7937 44.4933 30.8614 44.317 29.8087C44.2717 29.5242 44.1341 29.2444 43.9012 28.9702C43.6683 28.6962 43.3417 28.4824 42.9204 28.3287C42.4554 28.1972 41.9567 28.1642 41.4249 28.2299C40.827 28.2957 40.3447 28.5207 39.9791 28.9044C39.6046 29.2992 39.255 29.7167 38.9323 30.1544C38.608 30.5952 38.2405 31.0029 37.8352 31.3714C37.4363 31.7332 36.9158 31.9364 36.2729 31.9797C36.4831 31.0649 36.7327 30.1596 37.021 29.2662C37.312 28.3565 37.6336 27.4569 37.9852 26.5687C38.3281 25.7027 38.6881 24.9187 39.0647 24.2169C39.4415 23.5152 39.7963 22.9562 40.1286 22.5392C40.5494 22.0567 40.7268 21.5634 40.6607 21.0589C40.5939 20.7082 40.4278 20.3794 40.1623 20.0722C39.896 19.7652 39.5744 19.5074 39.1981 19.2989C38.8238 19.092 38.4204 18.9423 38.0013 18.8549C37.58 18.7674 37.1924 18.7674 36.8382 18.8549C36.2616 18.9862 35.7411 19.3762 35.2761 20.0229C34.8106 20.6699 34.3895 21.4649 34.0129 22.4074C33.6359 23.3507 33.3037 24.3974 33.0156 25.5489C32.7288 26.6954 32.4629 27.847 32.2182 29.0032C31.9856 30.0963 31.7695 31.1928 31.5701 32.2924C31.4369 33.0359 31.2889 33.7766 31.1262 34.5142C30.8463 34.5174 30.6237 34.5332 30.4665 34.5624C30.2891 34.5949 30.0344 34.6117 29.702 34.6117C29.3696 34.6117 29.0873 34.6007 28.8546 34.5787C28.6367 34.5594 28.4201 34.5265 28.2062 34.4802C27.9988 34.4336 27.7979 34.3618 27.6081 34.2664C27.3715 34.1476 27.1387 34.0213 26.9102 33.8877C27.442 32.4847 27.7852 31.1632 27.9405 29.9242C28.0952 28.6854 28.0736 27.4187 27.8741 26.1247C27.6744 24.8967 27.3752 23.8222 26.9765 22.9009C26.5778 21.9799 26.1008 21.2072 25.5473 20.5822C24.9932 19.9569 24.3892 19.4634 23.7358 19.1019C23.0821 18.7399 22.4008 18.4932 21.6916 18.3619C20.3398 18.0552 19.3038 18.1044 18.584 18.5099C17.8635 18.9157 17.3593 19.5129 17.0717 20.3024C16.7835 21.0914 16.6562 21.9854 16.6896 22.9832C16.7225 23.9814 16.8057 24.9187 16.9388 25.7957C17.1825 27.3532 17.6535 28.8714 18.3514 30.3517C19.041 31.8202 19.9926 33.152 21.16 34.2824C20.7827 35.0064 20.3235 35.7084 19.7808 36.3877C19.2481 37.0574 18.6402 37.6644 17.9691 38.1969C17.3169 38.7161 16.5953 39.1424 15.8251 39.4637C15.0607 39.7817 14.2796 39.9404 13.482 39.9404C12.7831 39.9423 12.0881 39.8369 11.4215 39.6279C10.7624 39.423 10.1518 39.0873 9.62655 38.6412C9.09472 38.1917 8.63424 37.6269 8.24711 36.9472C7.85923 36.2677 7.59896 35.4672 7.46582 34.5457C7.2882 33.4932 7.26082 32.4189 7.38291 31.3222C7.50248 30.2356 7.74217 29.1654 8.09763 28.1312C8.44538 27.1149 8.90223 26.139 9.46025 25.2202C9.94008 24.4319 10.4734 23.7207 11.0618 23.0884C11.0618 23.0884 12.1754 21.5319 15.124 20.4782C18.0731 19.4247 16.2874 17.9817 15.6088 17.9997C14.9313 18.0177 14.3706 17.8679 11.9792 18.7919C10.9545 19.2079 9.94837 19.7409 8.97841 20.4339C7.90319 21.2019 6.90082 22.1169 5.97031 23.1802C5.04442 24.237 4.25189 25.4026 3.61035 26.6509C2.96723 27.9009 2.508 29.2282 2.23115 30.6309C1.95356 32.0354 1.92617 33.4607 2.148 34.9079C2.34722 36.1799 2.76801 37.3147 3.41088 38.3127C4.0535 39.3107 4.84535 40.1547 5.78742 40.8452C6.72924 41.5359 7.77632 42.0679 8.92842 42.4407C10.0657 42.811 11.2549 42.9997 12.4515 42.9997C13.5373 42.9997 14.6504 42.8732 15.792 42.6217C16.9487 42.364 18.0743 41.9834 19.1493 41.4864C20.2459 40.9824 21.3037 40.3349 22.3232 39.5457C23.3421 38.7564 24.2618 37.8247 25.0821 36.7497C25.6579 37.0572 26.3671 37.2877 27.2092 37.4404C28.051 37.5944 28.8597 37.6709 29.6357 37.6709C29.8975 37.6709 30.1715 37.6509 30.4519 37.6209C30.3537 38.1812 30.3527 38.7357 30.4567 39.2824C30.4788 39.5457 30.5727 39.8257 30.7388 40.1217C30.9053 40.4181 31.1063 40.6939 31.3374 40.9437C31.5602 41.1882 31.8178 41.3988 32.1019 41.5689C32.3782 41.7334 32.6388 41.8157 32.8829 41.8157C33.3482 41.8157 33.7082 41.6724 33.9632 41.3877C34.2174 41.1029 34.4227 40.7629 34.5779 40.3684C34.7321 39.9767 34.8381 39.5679 34.8937 39.1509C34.9487 38.7349 35.01 38.3944 35.0766 38.1309C35.1648 37.7149 35.2537 37.2877 35.3424 36.8484C35.4332 36.4018 35.5554 35.962 35.7082 35.5324C35.974 36.2349 36.2232 36.9417 36.4558 37.6544C36.6884 38.3669 36.9763 39.0197 37.32 39.6117C37.6634 40.2037 38.1013 40.6919 38.6331 41.0757C39.1644 41.4589 39.8736 41.6617 40.7604 41.6837C41.5581 41.6837 42.3775 41.4644 43.2196 41.0262C44.054 40.5929 44.8303 40.0569 45.5301 39.4307C45.5997 39.3682 45.6627 39.3047 45.7301 39.2414C45.9933 39.9224 46.3832 40.4592 46.9058 40.8449C47.6921 41.4257 48.6284 41.7169 49.7144 41.7169C50.3568 41.6724 51.0547 41.4537 51.8086 41.0589C52.5612 40.6644 53.2043 40.0504 53.7362 39.2169C53.9133 40.1164 54.2733 40.7304 54.8164 41.0589C55.3591 41.3877 56.0627 41.5524 56.9269 41.5524C57.5693 41.5524 58.2898 41.3329 59.0874 40.8944C59.887 40.4547 60.6293 39.9188 61.2976 39.2989C61.4589 39.1497 61.6162 38.9964 61.7694 38.8389C61.998 39.4177 62.3322 39.9174 62.7763 40.3349C63.4521 40.9717 64.2771 41.3764 65.2526 41.5524C65.5626 41.5964 65.8781 41.6232 66.1999 41.6344C66.5166 41.6458 66.8336 41.6292 67.1473 41.5849C68.4988 41.4749 69.662 41.1362 70.6372 40.5657C71.612 39.9957 72.4204 39.2777 73.0638 38.4109C73.7061 37.5449 74.2156 36.5689 74.5924 35.4832C74.9724 34.3835 75.2397 33.2484 75.3903 32.0952C75.545 30.9224 75.6174 29.7379 75.6063 28.5424ZM54.4841 32.5884C54.2923 33.4254 54.1094 34.2644 53.9354 35.1052C53.8291 35.483 53.7239 35.8612 53.6199 36.2397C53.5201 36.6017 53.3872 36.9197 53.2212 37.1937C53.0581 37.4647 52.8295 37.6909 52.5562 37.8517C52.2789 38.0164 51.9081 38.1097 51.4428 38.1312C51.1104 38.1312 50.8446 38.0489 50.6452 37.8844C50.4457 37.7204 50.3126 37.4189 50.246 36.9799C50.1797 36.4537 50.2405 35.8177 50.4289 35.0722C50.617 34.3272 50.8944 33.5917 51.2599 32.8682C51.6254 32.1444 52.0686 31.5087 52.5894 30.9602C53.1099 30.4124 53.6696 30.0722 54.2678 29.9404C54.6667 29.8967 54.9212 29.9517 55.0325 30.1052C54.8557 30.9342 54.6729 31.762 54.4841 32.5884ZM23.1874 28.0654C23.0987 29.0307 22.9216 29.8204 22.6556 30.4337C22.4116 30.2807 22.1737 30.0177 21.9411 29.6444C21.7085 29.2719 21.4924 28.8442 21.2929 28.3614C21.0856 27.8568 20.908 27.3406 20.7611 26.8154C20.6097 26.2851 20.4876 25.747 20.3953 25.2034C20.3519 24.8651 20.3242 24.5249 20.3124 24.1839C20.3011 23.8549 20.3175 23.5589 20.3624 23.2954C20.4064 23.0324 20.4893 22.8244 20.6116 22.6709C20.733 22.5174 20.9051 22.4404 21.1269 22.4404C21.4369 22.4404 21.7024 22.5174 21.9245 22.6709C22.1456 22.8244 22.334 23.0274 22.4897 23.2792C22.6442 23.5317 22.7721 23.8222 22.8719 24.1509C22.9716 24.4799 23.0429 24.8202 23.0879 25.1709C23.2424 26.1359 23.2758 27.1009 23.1874 28.0654ZM104.978 35.0159C104.956 34.8834 104.857 34.7289 104.681 34.5514C104.505 34.3747 104.33 34.2859 104.154 34.2859C103.977 34.2859 103.824 34.3972 103.692 34.6179C103.365 35.2107 102.96 35.7574 102.488 36.2434C102.024 36.7224 101.51 37.1505 100.954 37.5202C100.416 37.8795 99.8341 38.1693 99.2225 38.3827C98.6171 38.5934 98.0186 38.6979 97.4245 38.6979C96.589 38.6539 95.9348 38.3887 95.462 37.9019C94.9889 37.4159 94.6651 36.7409 94.4893 35.8784C94.3569 35.1047 94.3516 34.3524 94.4727 33.6232C94.593 32.8932 94.8025 32.2517 95.0992 31.6992C95.3964 31.1467 95.7642 30.7034 96.2043 30.3722C96.644 30.0404 97.1278 29.8747 97.6556 29.8747C98.0732 29.8747 98.3922 30.0629 98.612 30.4387L97.4577 31.5002C97.2373 31.6769 97.0836 31.8484 96.9962 32.0142C96.9098 32.1739 96.8538 32.348 96.8309 32.5279C96.8748 32.7937 97.0067 33.0254 97.2268 33.2244C97.4464 33.4242 97.7054 33.5894 98.0021 33.7227C98.3046 33.8573 98.6193 33.9626 98.9421 34.0372C99.272 34.1152 99.5576 34.1534 99.7998 34.1534C100.13 34.1534 100.443 34.0434 100.739 33.8222C101.037 33.6009 101.295 33.2972 101.515 32.9097C101.734 32.5232 101.894 32.0697 101.993 31.5497C102.092 31.0302 102.097 30.4717 102.01 29.8747C101.921 29.4767 101.773 29.1397 101.564 28.8629C101.362 28.5931 101.117 28.3579 100.838 28.1664C100.562 27.9779 100.255 27.8376 99.9317 27.7514C99.6063 27.6642 99.2757 27.5978 98.9419 27.5527C98.6361 27.5097 98.3273 27.493 98.0186 27.5027C97.7531 27.512 97.4885 27.5397 97.2268 27.5857C96.0174 27.6964 94.9452 28.0447 94.0107 28.6307C93.0761 29.2169 92.3006 29.9357 91.6856 30.7869C91.0735 31.6307 90.626 32.5813 90.3662 33.5894C90.2608 33.9941 90.1881 34.4065 90.1489 34.8227C89.8419 35.1502 89.4596 35.3144 89.0009 35.3144C88.6708 35.3144 88.3741 35.1934 88.1103 34.9494C88.3741 34.3524 88.5333 33.6507 88.5886 32.8434C88.6431 32.0367 88.566 31.2734 88.3575 30.5544C88.1485 29.8362 87.7855 29.2224 87.269 28.7137C86.752 28.2052 86.032 27.9507 85.1085 27.9507C84.8002 27.9507 84.449 28.0062 84.0528 28.1167C83.1168 28.3547 82.7661 29.7254 82.9975 30.6707C83.0412 30.9807 83.1181 31.2957 83.2286 31.6157C83.3352 31.9301 83.4674 32.2353 83.624 32.5282C83.7706 32.8045 83.9359 33.0705 84.1189 33.3244C84.4046 33.7639 84.6972 34.2182 85.005 34.6592C84.8562 35.0417 84.6296 35.4704 84.4206 35.8842C84.1576 36.4057 84.0144 36.6362 83.7398 37.0892C83.4645 37.5427 83.1349 37.9184 82.75 38.2172C82.3654 38.5157 81.9421 38.6764 81.4804 38.6979C81.2163 38.6979 80.9797 38.6267 80.7712 38.4822C80.5624 38.3393 80.3878 38.1524 80.2597 37.9349C80.1212 37.6997 80.0106 37.4492 79.9301 37.1887C79.8427 36.9121 79.7766 36.6294 79.7321 36.3429C79.0754 31.0892 83.0196 29.6229 82.0531 28.9979C80.0004 27.9052 76.8715 30.5897 75.7081 34.0212C75.3564 35.1712 75.2682 36.3094 75.4441 37.4374C75.5296 38.0269 75.7255 38.5951 76.0216 39.1127C76.3137 39.6269 76.693 40.087 77.1425 40.4727C77.5932 40.8599 78.1047 41.1692 78.6767 41.4014C79.2483 41.6339 79.864 41.7497 80.5237 41.7497C81.2932 41.7497 82.0298 41.6054 82.7337 41.3184C83.4224 41.0396 84.0711 40.6716 84.6631 40.2239C85.2405 39.7865 85.7614 39.2795 86.2136 38.7147C86.664 38.1507 87.0434 37.6034 87.3516 37.0724C87.637 37.2499 87.9287 37.3709 88.2256 37.4374C88.5223 37.5039 88.8135 37.5369 89.0998 37.5369C89.5327 37.5369 89.947 37.4437 90.3449 37.2664C90.6627 38.6102 91.245 39.6479 92.0974 40.3732C93.0983 41.2247 94.5327 41.6502 96.402 41.6502C97.3474 41.6502 98.293 41.4512 99.2388 41.0532C100.184 40.6549 101.048 40.1574 101.828 39.5607C102.609 38.9634 103.274 38.3222 103.824 37.6364C104.373 36.9514 104.736 36.3212 104.912 35.7462C104.956 35.6129 104.983 35.4862 104.995 35.3642C105.006 35.2432 105 35.1269 104.978 35.0159ZM85.8141 32.2442C85.8141 32.2442 84.1599 29.8529 84.9793 29.6842C85.7988 29.5159 86.4475 30.4649 85.8141 32.2442Z" fill="#EDEDED"/>
</g>
</svg>
